<svg width="531" height="465" viewBox="0 0 531 465" fill="none" xmlns="http://www.w3.org/2000/svg">
<path fill-rule="evenodd" clip-rule="evenodd" d="M0 0.753906H531V464.754H0V0.753906ZM0.829687 1.58248H65.5453V66.2111H0.829687V1.58248ZM67.2047 1.58248H131.92V66.2111H67.2047V1.58248ZM198.295 1.58248H133.58V66.2111H198.295V1.58248ZM199.955 1.58248H264.67V66.2111H199.955V1.58248ZM331.045 1.58248H266.33V66.2111H331.045V1.58248ZM332.705 1.58248H397.42V66.2111H332.705V1.58248ZM463.795 1.58248H399.08V66.2111H463.795V1.58248ZM465.455 1.58248H530.17V66.2111H465.455V1.58248ZM65.5453 67.8682H0.829687V132.497H65.5453V67.8682ZM67.2047 67.8682H131.92V132.497H67.2047V67.8682ZM198.295 67.8682H133.58V132.497H198.295V67.8682ZM199.955 67.8682H264.67V132.497H199.955V67.8682ZM331.045 67.8682H266.33V132.497H331.045V67.8682ZM332.705 67.8682H397.42V132.497H332.705V67.8682ZM463.795 67.8682H399.08V132.497H463.795V67.8682ZM465.455 67.8682H530.17V132.497H465.455V67.8682ZM65.5453 134.154H0.829687V198.782H65.5453V134.154ZM67.2047 134.154H131.92V198.782H67.2047V134.154ZM198.295 134.154H133.58V198.782H198.295V134.154ZM199.955 134.154H264.67V198.782H199.955V134.154ZM331.045 134.154H266.33V198.782H331.045V134.154ZM332.705 134.154H397.42V198.782H332.705V134.154ZM463.795 134.154H399.08V198.782H463.795V134.154ZM465.455 134.154H530.17V198.782H465.455V134.154ZM65.5453 200.44H0.829687V265.068H65.5453V200.44ZM67.2047 200.44H131.92V265.068H67.2047V200.44ZM198.295 200.44H133.58V265.068H198.295V200.44ZM199.955 200.44H264.67V265.068H199.955V200.44ZM331.045 200.44H266.33V265.068H331.045V200.44ZM332.705 200.44H397.42V265.068H332.705V200.44ZM463.795 200.44H399.08V265.068H463.795V200.44ZM465.455 200.44H530.17V265.068H465.455V200.44ZM65.5453 266.725H0.829687V331.354H65.5453V266.725ZM67.2047 266.725H131.92V331.354H67.2047V266.725ZM198.295 266.725H133.58V331.354H198.295V266.725ZM199.955 266.725H264.67V331.354H199.955V266.725ZM331.045 266.725H266.33V331.354H331.045V266.725ZM332.705 266.725H397.42V331.354H332.705V266.725ZM463.795 266.725H399.08V331.354H463.795V266.725ZM465.455 266.725H530.17V331.354H465.455V266.725ZM65.5453 333.011H0.829687V397.64H65.5453V333.011ZM67.2047 333.011H131.92V397.64H67.2047V333.011ZM198.295 333.011H133.58V397.64H198.295V333.011ZM199.955 333.011H264.67V397.64H199.955V333.011ZM331.045 333.011H266.33V397.64H331.045V333.011ZM332.705 333.011H397.42V397.64H332.705V333.011ZM463.795 333.011H399.08V397.64H463.795V333.011ZM465.455 333.011H530.17V397.64H465.455V333.011ZM65.5453 399.297H0.829687V463.925H65.5453V399.297ZM67.2047 399.297H131.92V463.925H67.2047V399.297ZM198.295 399.297H133.58V463.925H198.295V399.297ZM199.955 399.297H264.67V463.925H199.955V399.297ZM331.045 399.297H266.33V463.925H331.045V399.297ZM332.705 399.297H397.42V463.925H332.705V399.297ZM463.795 399.297H399.08V463.925H463.795V399.297ZM465.455 399.297H530.17V463.925H465.455V399.297Z" fill="#C5E9FF"/>
</svg>
